<?xml version="1.0" encoding="UTF-8" ?>
<svg width="626pt" height="403pt" viewBox="0.00 0.00 626.00 403.31" xmlns="http://www.w3.org/2000/svg" xmlns:xlink="http://www.w3.org/1999/xlink">
<g id="graph0" class="graph" transform="scale(.6474 .6474) rotate(0) translate(4 619)">
<title>synthdefjs_toBytes</title>
<polygon fill="#ffffff" stroke="transparent" points="-4,4 -4,-619 963,-619 963,4 -4,4"/>
<g id="clust1" class="cluster">
<title>cluster_0</title>
<polygon fill="none" stroke="#0000ff" stroke-dasharray="5,2" points="8,-335.6 8,-513.4 606,-513.4 606,-335.6 8,-335.6"/>
</g>
<g id="clust2" class="cluster">
<title>cluster_1</title>
<polygon fill="none" stroke="#ff0000" stroke-dasharray="5,2" points="614,-257.8 614,-607 951,-607 951,-257.8 614,-257.8"/>
<text text-anchor="middle" x="782.5" y="-590.4" font-family="Times,serif" font-size="14.00" fill="#000000">Construction of SynthDef</text>
</g>
<g id="clust3" class="cluster">
<title>cluster_3</title>
<polygon fill="none" stroke="#000000" points="176,-8 176,-225.8 434,-225.8 434,-8 176,-8"/>
</g>
<!-- name -->
<g id="node1" class="node">
<title>name</title>
<polygon fill="none" stroke="#000000" stroke-width="2" points="126,-531.5984 189.8024,-568.5008 62.1976,-568.5008 126,-531.5984"/>
<text text-anchor="middle" x="126" y="-552" font-family="Times,serif" font-size="14.00" fill="#000000">name</text>
</g>
<!-- SynthDef -->
<g id="node3" class="node">
<title>SynthDef</title>
<ellipse fill="none" stroke="#000000" cx="225" cy="-487.4" rx="48.0935" ry="18"/>
<text text-anchor="middle" x="225" y="-483.2" font-family="Times,serif" font-size="14.00" fill="#000000">SynthDef</text>
</g>
<!-- name&#45;&gt;SynthDef -->
<g id="edge1" class="edge">
<title>name-&gt;SynthDef</title>
<path fill="none" stroke="#000000" d="M145.5592,-542.6073C159.2525,-533.0912 177.8422,-520.1723 193.5961,-509.2241"/>
<polygon fill="#000000" stroke="#000000" points="195.793,-511.9596 202.0074,-503.3787 191.7983,-506.2114 195.793,-511.9596"/>
</g>
<!-- JS Func Obj -->
<g id="node2" class="node">
<title>JS Func Obj</title>
<polygon fill="none" stroke="#000000" stroke-width="2" points="325,-531.5984 442.6373,-568.5008 207.3627,-568.5008 325,-531.5984"/>
<text text-anchor="middle" x="325" y="-552" font-family="Times,serif" font-size="14.00" fill="#000000">JS Func Obj</text>
</g>
<!-- JS Func Obj&#45;&gt;SynthDef -->
<g id="edge2" class="edge">
<title>JS Func Obj-&gt;SynthDef</title>
<path fill="none" stroke="#000000" d="M300.2809,-539.1933C287.0614,-530.0982 270.6423,-518.8019 256.5148,-509.0822"/>
<polygon fill="#000000" stroke="#000000" points="258.286,-506.0524 248.0637,-503.2678 254.3183,-511.8194 258.286,-506.0524"/>
</g>
<!-- Name -->
<g id="node4" class="node">
<title>Name</title>
<ellipse fill="#d3d3d3" stroke="#000000" cx="50" cy="-361.6" rx="34.1871" ry="18"/>
<text text-anchor="middle" x="50" y="-357.4" font-family="Times,serif" font-size="14.00" fill="#000000">Name</text>
</g>
<!-- SynthDef&#45;&gt;Name -->
<g id="edge3" class="edge">
<title>SynthDef-&gt;Name</title>
<path fill="none" stroke="#000000" d="M196.3283,-472.7937C183.8404,-466.4319 172,-460.4 172,-460.4 172,-460.4 110.8642,-410.89 75.1479,-381.9657"/>
<ellipse fill="#000000" stroke="#000000" cx="71.9036" cy="-379.3384" rx="4" ry="4"/>
</g>
<!-- JS Func Obj&#39; -->
<g id="node5" class="node">
<title>JS Func Obj'</title>
<ellipse fill="#d3d3d3" stroke="#000000" cx="164" cy="-361.6" rx="61.9982" ry="18"/>
<text text-anchor="middle" x="164" y="-357.4" font-family="Times,serif" font-size="14.00" fill="#000000">JS Func Obj'</text>
</g>
<!-- SynthDef&#45;&gt;JS Func Obj&#39; -->
<g id="edge4" class="edge">
<title>SynthDef-&gt;JS Func Obj'</title>
<path fill="none" stroke="#000000" d="M206.2064,-470.6937C188.805,-455.225 165.603,-434.6 165.603,-434.6 165.603,-434.6 165.0325,-408.618 164.5721,-387.6552"/>
<ellipse fill="#000000" stroke="#000000" cx="164.4841" cy="-383.644" rx="4" ry="4"/>
<text text-anchor="middle" x="237.6985" y="-412.4" font-family="Times,serif" font-size="14.00" fill="#000000"> Replace Ops with UGens</text>
</g>
<!-- UGen Nodes -->
<g id="node6" class="node">
<title>UGen Nodes</title>
<ellipse fill="#d3d3d3" stroke="#000000" cx="305" cy="-361.6" rx="61.359" ry="18"/>
<text text-anchor="middle" x="305" y="-357.4" font-family="Times,serif" font-size="14.00" fill="#000000">UGen Nodes</text>
</g>
<!-- SynthDef&#45;&gt;UGen Nodes -->
<g id="edge5" class="edge">
<title>SynthDef-&gt;UGen Nodes</title>
<path fill="none" stroke="#000000" d="M250.3377,-471.8438C275.7056,-456.2691 311,-434.6 311,-434.6 311,-434.6 311,-398.6 311,-398.6 311,-398.6 310.2351,-393.8829 309.2514,-387.8173"/>
<ellipse fill="#000000" stroke="#000000" cx="308.57" cy="-383.6149" rx="4" ry="4"/>
</g>
<!-- Controls -->
<g id="node7" class="node">
<title>Controls</title>
<ellipse fill="#d3d3d3" stroke="#000000" cx="522" cy="-487.4" rx="44.1006" ry="18"/>
<text text-anchor="middle" x="522" y="-483.2" font-family="Times,serif" font-size="14.00" fill="#000000">Controls</text>
</g>
<!-- SynthDef&#45;&gt;Controls -->
<g id="edge7" class="edge">
<title>SynthDef-&gt;Controls</title>
<path fill="none" stroke="#000000" d="M273.05,-487.4C298.2738,-487.4 324,-487.4 324,-487.4 324,-487.4 423,-487.4 423,-487.4 423,-487.4 445.7194,-487.4 469.3907,-487.4"/>
<ellipse fill="#000000" stroke="#000000" cx="473.4234" cy="-487.4" rx="4" ry="4"/>
</g>
<!-- Constants -->
<g id="node8" class="node">
<title>Constants</title>
<ellipse fill="#d3d3d3" stroke="#000000" cx="549" cy="-361.6" rx="49.2551" ry="18"/>
<text text-anchor="middle" x="549" y="-357.4" font-family="Times,serif" font-size="14.00" fill="#000000">Constants</text>
</g>
<!-- SynthDef&#45;&gt;Constants -->
<g id="edge8" class="edge">
<title>SynthDef-&gt;Constants</title>
<path fill="none" stroke="#000000" d="M258.4534,-474.411C318.1142,-451.2464 442.6932,-402.8759 507.6284,-377.6634"/>
<ellipse fill="#000000" stroke="#000000" cx="511.5144" cy="-376.1546" rx="4" ry="4"/>
</g>
<!-- JS Func&#39; -->
<g id="node9" class="node">
<title>JS Func'</title>
<ellipse fill="none" stroke="#000000" cx="817" cy="-556.2" rx="45.203" ry="18"/>
<text text-anchor="middle" x="817" y="-552" font-family="Times,serif" font-size="14.00" fill="#000000">JS Func'</text>
</g>
<!-- JS Func Obj&#39;&#45;&gt;JS Func&#39; -->
<g id="edge18" class="edge">
<title>JS Func Obj'-&gt;JS Func'</title>
<path fill="none" stroke="#000000" d="M210.9626,-373.506C224.1663,-376.8534 235,-379.6 235,-379.6 235,-379.6 314,-398.6 314,-398.6 314,-398.6 575,-469.4 575,-469.4 575,-469.4 690,-513.4 690,-513.4 690,-513.4 763,-531.4 763,-531.4 763,-531.4 769.4274,-534.3518 777.8473,-538.2187"/>
<polygon fill="#000000" stroke="#000000" points="776.6088,-541.5014 787.157,-542.4943 779.5303,-535.1402 776.6088,-541.5014"/>
<text text-anchor="middle" x="563.2935" y="-447.8" font-family="Times,serif" font-size="14.00" fill="#000000"> Execute</text>
</g>
<!-- UGen Nodes&#45;&gt;UGen Nodes -->
<g id="edge6" class="edge">
<title>UGen Nodes-&gt;UGen Nodes</title>
<path fill="none" stroke="#000000" d="M364.3924,-366.2581C375.9628,-365.7171 384.1792,-364.1645 384.1792,-361.6 384.1792,-359.877 380.4702,-358.6107 374.5269,-357.8012"/>
<polygon fill="#000000" stroke="#000000" points="374.6524,-354.2994 364.3924,-356.9419 374.0609,-361.2743 374.6524,-354.2994"/>
<text text-anchor="middle" x="433.56" y="-357.4" font-family="Times,serif" font-size="14.00" fill="#000000"> Check Inputs      </text>
</g>
<!-- Optimized SynthDef -->
<g id="node16" class="node">
<title>Optimized SynthDef</title>
<polygon fill="none" stroke="#0000ff" stroke-dasharray="5,2" points="371.2534,-301.8 238.7466,-301.8 238.7466,-265.8 371.2534,-265.8 371.2534,-301.8"/>
<text text-anchor="middle" x="305" y="-279.6" font-family="Times,serif" font-size="14.00" fill="#000000">Optimized SynthDef</text>
</g>
<!-- UGen Nodes&#45;&gt;Optimized SynthDef -->
<g id="edge19" class="edge">
<title>UGen Nodes-&gt;Optimized SynthDef</title>
<path fill="none" stroke="#000000" d="M305,-335.6031C305,-328.6808 305,-321.1438 305,-314.0165"/>
<polygon fill="none" stroke="#000000" points="305.0001,-314.0161 301,-308.0161 305,-302.0161 309,-308.016 305.0001,-314.0161"/>
<text text-anchor="middle" x="353.9937" y="-315" font-family="Times,serif" font-size="14.00" fill="#000000"> Topological Sort</text>
</g>
<!-- UGen_i -->
<g id="node10" class="node">
<title>UGen_i</title>
<ellipse fill="none" stroke="#000000" cx="664" cy="-416.6" rx="41.7133" ry="18"/>
<text text-anchor="middle" x="664" y="-412.4" font-family="Times,serif" font-size="14.00" fill="#000000">UGen_i</text>
</g>
<!-- JS Func&#39;&#45;&gt;UGen_i -->
<g id="edge9" class="edge">
<title>JS Func'-&gt;UGen_i</title>
<path fill="none" stroke="#000000" d="M787.157,-542.4943C774.6683,-536.7588 763,-531.4 763,-531.4 763,-531.4 718.6276,-513.4 718.6276,-513.4 718.6276,-513.4 695.1474,-471.7931 678.9746,-443.135"/>
<polygon fill="#000000" stroke="#000000" points="681.9825,-441.3434 674.0195,-434.3546 675.8862,-444.7837 681.9825,-441.3434"/>
<text text-anchor="middle" x="746.1862" y="-483.2" font-family="Times,serif" font-size="14.00" fill="#000000"> ∀ UGens</text>
</g>
<!-- Control_i -->
<g id="node13" class="node">
<title>Control_i</title>
<ellipse fill="none" stroke="#000000" cx="895" cy="-416.6" rx="48.1129" ry="18"/>
<text text-anchor="middle" x="895" y="-412.4" font-family="Times,serif" font-size="14.00" fill="#000000">Control_i</text>
</g>
<!-- JS Func&#39;&#45;&gt;Control_i -->
<g id="edge15" class="edge">
<title>JS Func'-&gt;Control_i</title>
<path fill="none" stroke="#000000" d="M832.4561,-538.7916C842.9766,-526.9422 855,-513.4 855,-513.4 855,-513.4 871.7153,-472.9489 883.5351,-444.3451"/>
<polygon fill="#000000" stroke="#000000" points="886.8919,-445.3861 887.4763,-434.8073 880.4225,-442.7127 886.8919,-445.3861"/>
<text text-anchor="middle" x="905.8615" y="-483.2" font-family="Times,serif" font-size="14.00" fill="#000000"> ∀ Controls</text>
</g>
<!-- Constant_i -->
<g id="node15" class="node">
<title>Constant_i</title>
<ellipse fill="none" stroke="#000000" cx="776" cy="-416.6" rx="52.7681" ry="18"/>
<text text-anchor="middle" x="776" y="-412.4" font-family="Times,serif" font-size="14.00" fill="#000000">Constant_i</text>
</g>
<!-- JS Func&#39;&#45;&gt;Constant_i -->
<g id="edge17" class="edge">
<title>JS Func'-&gt;Constant_i</title>
<path fill="none" stroke="#000000" d="M802.8774,-538.7916C793.2645,-526.9422 782.2784,-513.4 782.2784,-513.4 782.2784,-513.4 779.7004,-473.6524 777.8483,-445.0972"/>
<polygon fill="#000000" stroke="#000000" points="781.3209,-444.5598 777.1809,-434.8073 774.3356,-445.0129 781.3209,-444.5598"/>
<text text-anchor="middle" x="818.3608" y="-483.2" font-family="Times,serif" font-size="14.00" fill="#000000"> ∀ Constants</text>
</g>
<!-- UGen_i&#45;&gt;UGen Nodes -->
<g id="edge10" class="edge">
<title>UGen_i-&gt;UGen Nodes</title>
<path fill="none" stroke="#000000" d="M636.6562,-402.9281C622.4409,-395.8205 608,-388.6 608,-388.6 608,-388.6 491,-379.6 491,-379.6 491,-379.6 426.4742,-373.3556 373.4331,-368.2226"/>
<polygon fill="#000000" stroke="#000000" points="373.6319,-364.7255 363.3412,-367.2459 372.9576,-371.693 373.6319,-364.7255"/>
</g>
<!-- ControlUGen_i -->
<g id="node11" class="node">
<title>ControlUGen_i</title>
<ellipse fill="none" stroke="#000000" cx="705" cy="-283.8" rx="71.2288" ry="18"/>
<text text-anchor="middle" x="705" y="-279.6" font-family="Times,serif" font-size="14.00" fill="#000000">ControlUGen_i</text>
</g>
<!-- ControlUGen_i&#45;&gt;UGen Nodes -->
<g id="edge11" class="edge">
<title>ControlUGen_i-&gt;UGen Nodes</title>
<path fill="none" stroke="#000000" d="M648.4423,-294.8005C573.8032,-309.3178 442.9125,-334.776 366.0787,-349.7202"/>
<polygon fill="#000000" stroke="#000000" points="365.2144,-346.3226 356.0666,-351.6676 366.5509,-353.1939 365.2144,-346.3226"/>
</g>
<!-- ControlNamei -->
<g id="node12" class="node">
<title>ControlNamei</title>
<ellipse fill="none" stroke="#000000" cx="688" cy="-556.2" rx="66.0704" ry="18"/>
<text text-anchor="middle" x="688" y="-552" font-family="Times,serif" font-size="14.00" fill="#000000">ControlNamei</text>
</g>
<!-- ControlNamei&#45;&gt;Controls -->
<g id="edge12" class="edge">
<title>ControlNamei-&gt;Controls</title>
<path fill="none" stroke="#000000" d="M644.3836,-542.5497C614.4096,-533.1689 580,-522.4 580,-522.4 580,-522.4 568.5488,-515.4898 555.8228,-507.8103"/>
<polygon fill="#000000" stroke="#000000" points="557.3041,-504.6163 546.9338,-502.4463 553.6874,-510.6096 557.3041,-504.6163"/>
</g>
<!-- Control_i&#45;&gt;ControlUGen_i -->
<g id="edge13" class="edge">
<title>Control_i-&gt;ControlUGen_i</title>
<path fill="none" stroke="#000000" d="M872.0816,-400.5812C838.5892,-377.1718 776.1001,-333.4952 737.7621,-306.699"/>
<polygon fill="#000000" stroke="#000000" points="739.7025,-303.785 729.501,-300.9249 735.6923,-309.5225 739.7025,-303.785"/>
</g>
<!-- ControlName_i -->
<g id="node14" class="node">
<title>ControlName_i</title>
<ellipse fill="none" stroke="#000000" cx="872" cy="-283.8" rx="71.2268" ry="18"/>
<text text-anchor="middle" x="872" y="-279.6" font-family="Times,serif" font-size="14.00" fill="#000000">ControlName_i</text>
</g>
<!-- Control_i&#45;&gt;ControlName_i -->
<g id="edge14" class="edge">
<title>Control_i-&gt;ControlName_i</title>
<path fill="none" stroke="#000000" d="M891.8502,-398.4132C888.0007,-376.1866 881.4429,-338.3224 876.9246,-312.2342"/>
<polygon fill="#000000" stroke="#000000" points="880.3409,-311.4493 875.1856,-302.1933 873.4435,-312.644 880.3409,-311.4493"/>
</g>
<!-- Constant_i&#45;&gt;Constants -->
<g id="edge16" class="edge">
<title>Constant_i-&gt;Constants</title>
<path fill="none" stroke="#000000" d="M735.9927,-404.7946C724.4949,-401.4018 715,-398.6 715,-398.6 715,-398.6 610,-379.6 610,-379.6 610,-379.6 604.5972,-378.0057 597.0075,-375.7661"/>
<polygon fill="#000000" stroke="#000000" points="597.8676,-372.3708 587.2859,-372.8975 595.8864,-379.0846 597.8676,-372.3708"/>
</g>
<!-- SynthDef File Format -->
<g id="node17" class="node">
<title>SynthDef File Format</title>
<ellipse fill="none" stroke="#000000" cx="305" cy="-199.8" rx="95.5837" ry="18"/>
<text text-anchor="middle" x="305" y="-195.6" font-family="Times,serif" font-size="14.00" fill="#000000">SynthDef File Format</text>
</g>
<!-- Optimized SynthDef&#45;&gt;SynthDef File Format -->
<g id="edge20" class="edge">
<title>Optimized SynthDef-&gt;SynthDef File Format</title>
<path fill="none" stroke="#000000" d="M305,-265.5733C305,-254.6758 305,-240.5946 305,-228.2587"/>
<polygon fill="#000000" stroke="#000000" points="305,-217.9912 309.5001,-227.9911 305,-222.9912 305.0001,-227.9912 305.0001,-227.9912 305.0001,-227.9912 305,-222.9912 300.5001,-227.9912 305,-217.9912 305,-217.9912"/>
</g>
<!-- .scsyndef file -->
<g id="node18" class="node">
<title>.scsyndef file</title>
<ellipse fill="none" stroke="#000000" cx="247" cy="-124.8" rx="62.5373" ry="18"/>
<text text-anchor="middle" x="247" y="-120.6" font-family="Times,serif" font-size="14.00" fill="#000000">.scsyndef file</text>
</g>
<!-- SynthDef File Format&#45;&gt;.scsyndef file -->
<g id="edge21" class="edge">
<title>SynthDef File Format-&gt;.scsyndef file</title>
<path fill="none" stroke="#000000" d="M290.9598,-181.6446C283.7832,-172.3645 274.9233,-160.9078 267.0422,-150.7167"/>
<polygon fill="#000000" stroke="#000000" points="269.597,-148.2988 260.7107,-142.5294 264.0596,-152.5811 269.597,-148.2988"/>
</g>
<!-- OSC blob -->
<g id="node19" class="node">
<title>OSC blob</title>
<ellipse fill="none" stroke="#000000" cx="377" cy="-124.8" rx="49.2996" ry="18"/>
<text text-anchor="middle" x="377" y="-120.6" font-family="Times,serif" font-size="14.00" fill="#000000">OSC blob</text>
</g>
<!-- SynthDef File Format&#45;&gt;OSC blob -->
<g id="edge22" class="edge">
<title>SynthDef File Format-&gt;OSC blob</title>
<path fill="none" stroke="#000000" d="M322.063,-182.026C331.4326,-172.2661 343.1946,-160.014 353.4289,-149.3532"/>
<polygon fill="#000000" stroke="#000000" points="356.1546,-151.5679 360.5551,-141.9301 351.1049,-146.7201 356.1546,-151.5679"/>
</g>
<!-- SuperCollider server -->
<g id="node20" class="node">
<title>SuperCollider server</title>
<ellipse fill="none" stroke="#000000" cx="318" cy="-34" rx="91.429" ry="18"/>
<text text-anchor="middle" x="318" y="-29.8" font-family="Times,serif" font-size="14.00" fill="#000000">SuperCollider server</text>
</g>
<!-- .scsyndef file&#45;&gt;SuperCollider server -->
<g id="edge23" class="edge">
<title>.scsyndef file-&gt;SuperCollider server</title>
<path fill="none" stroke="#000000" d="M261.0273,-106.8608C271.5297,-93.4296 286.0484,-74.8621 297.8005,-59.8326"/>
<polygon fill="#000000" stroke="#000000" points="300.5992,-61.9355 304.0018,-51.9019 295.0848,-57.6236 300.5992,-61.9355"/>
<text text-anchor="middle" x="307.0526" y="-75.2" font-family="Times,serif" font-size="14.00" fill="#000000">d_load</text>
</g>
<!-- OSC blob&#45;&gt;SuperCollider server -->
<g id="edge24" class="edge">
<title>OSC blob-&gt;SuperCollider server</title>
<path fill="none" stroke="#000000" d="M365.3435,-106.8608C356.7778,-93.6783 344.9971,-75.548 335.3304,-60.6711"/>
<polygon fill="#000000" stroke="#000000" points="338.0158,-58.3802 329.6323,-51.9019 332.1461,-62.1942 338.0158,-58.3802"/>
<text text-anchor="middle" x="371.0449" y="-75.2" font-family="Times,serif" font-size="14.00" fill="#000000">d_recv</text>
</g>
</g>
</svg>