<svg version="1.1" xmlns="http://www.w3.org/2000/svg" width="626.4pt" height="402.52839710444675pt" viewBox="0 0 626.4 402.52839710444675"><style type="text/css">.dashed {stroke-dasharray: 5,5} .dotted {stroke-dasharray: 1,5} .overlay {fill: none; pointer-events: all}</style><g><g transform="translate(2.591106414794922, 399.9372863769531) scale(0.6477766036987305,0.6477766036987305)"><polygon stroke="#fffffe" stroke-opacity="0" fill="#ffffff" points="-4,4 -4,-617.4 963,-617.4 963,4"></polygon><g class="subgraph"><title>cluster_0</title><path class="dashed" stroke="#0000ff" fill="none" d="M 353,-288.6 L 353,-418.4,951,-418.4,951,-288.6 Z"></path></g><g class="subgraph"><title>cluster_1</title><path class="dashed" stroke="#ff0000" fill="none" d="M 8,-366.4 L 8,-605.4,345,-605.4,345,-366.4 Z"></path><text x="176.5" y="-588.8" text-anchor="middle" font-family="'Times-Roman',serif" font-size="14" fill="#000000">Construction of SynthDef</text></g><g class="subgraph"><title>cluster_3</title><path class="none" stroke="#000000" fill="none" d="M 293,-8 L 293,-185.8,551,-185.8,551,-8 Z"></path></g><g class="node"><title>edge</title></g><g class="node"><title>SynthDef</title><path stroke="#000000" fill="none" d="M 676,-392.4 m -48.09,0 a 48.09,18 0 1,0 96.18,0 a 48.09,18 0 1,0 -96.18,0"></path><text x="676" y="-388.2" text-anchor="middle" font-family="'Times-Roman',serif" font-size="14" fill="#000000">SynthDef</text></g><g class="node"><title>Name</title><path stroke="#000000" fill="#d3d3d3" d="M 767,-314.6 m -34.19,0 a 34.19,18 0 1,0 68.38,0 a 34.19,18 0 1,0 -68.38,0"></path><text x="767" y="-310.4" text-anchor="middle" font-family="'Times-Roman',serif" font-size="14" fill="#000000">Name</text></g><g class="node"><title>JS Func Obj'</title><path stroke="#000000" fill="#d3d3d3" d="M 881,-314.6 m -62,0 a 62,18 0 1,0 124,0 a 62,18 0 1,0 -124,0"></path><text x="881" y="-310.4" text-anchor="middle" font-family="'Times-Roman',serif" font-size="14" fill="#000000">JS Func Obj'</text></g><g class="node"><title>UGen Nodes</title><path stroke="#000000" fill="#d3d3d3" d="M 422,-314.6 m -61.36,0 a 61.36,18 0 1,0 122.72,0 a 61.36,18 0 1,0 -122.72,0"></path><text x="422" y="-310.4" text-anchor="middle" font-family="'Times-Roman',serif" font-size="14" fill="#000000">UGen Nodes</text></g><g class="node"><title>Controls</title><path stroke="#000000" fill="#d3d3d3" d="M 456,-392.4 m -44.1,0 a 44.1,18 0 1,0 88.2,0 a 44.1,18 0 1,0 -88.2,0"></path><text x="456" y="-388.2" text-anchor="middle" font-family="'Times-Roman',serif" font-size="14" fill="#000000">Controls</text></g><g class="node"><title>Constants</title><path stroke="#000000" fill="#d3d3d3" d="M 666,-314.6 m -49.26,0 a 49.26,18 0 1,0 98.52,0 a 49.26,18 0 1,0 -98.52,0"></path><text x="666" y="-310.4" text-anchor="middle" font-family="'Times-Roman',serif" font-size="14" fill="#000000">Constants</text></g><g class="node"><title>JS Func'</title><path stroke="#000000" fill="none" d="M 221,-554.6 m -45.2,0 a 45.2,18 0 1,0 90.4,0 a 45.2,18 0 1,0 -90.4,0"></path><text x="221" y="-550.4" text-anchor="middle" font-family="'Times-Roman',serif" font-size="14" fill="#000000">JS Func'</text></g><g class="node"><title>UGen_i</title><path stroke="#000000" fill="none" d="M 172,-477 m -41.71,0 a 41.71,18 0 1,0 83.42,0 a 41.71,18 0 1,0 -83.42,0"></path><text x="172" y="-472.8" text-anchor="middle" font-family="'Times-Roman',serif" font-size="14" fill="#000000">UGen_i</text></g><g class="node"><title>Control_i</title><path stroke="#000000" fill="none" d="M 64,-477 m -48.11,0 a 48.11,18 0 1,0 96.22,0 a 48.11,18 0 1,0 -96.22,0"></path><text x="64" y="-472.8" text-anchor="middle" font-family="'Times-Roman',serif" font-size="14" fill="#000000">Control_i</text></g><g class="node"><title>Constant_i</title><path stroke="#000000" fill="none" d="M 284,-477 m -52.77,0 a 52.77,18 0 1,0 105.54,0 a 52.77,18 0 1,0 -105.54,0"></path><text x="284" y="-472.8" text-anchor="middle" font-family="'Times-Roman',serif" font-size="14" fill="#000000">Constant_i</text></g><g class="node"><title>ControlUGen_i</title><path stroke="#000000" fill="none" d="M 87,-392.4 m -71.23,0 a 71.23,18 0 1,0 142.46,0 a 71.23,18 0 1,0 -142.46,0"></path><text x="87" y="-388.2" text-anchor="middle" font-family="'Times-Roman',serif" font-size="14" fill="#000000">ControlUGen_i</text></g><g class="node"><title>ControlName_i</title><path stroke="#000000" fill="none" d="M 247,-392.4 m -71.23,0 a 71.23,18 0 1,0 142.46,0 a 71.23,18 0 1,0 -142.46,0"></path><text x="247" y="-388.2" text-anchor="middle" font-family="'Times-Roman',serif" font-size="14" fill="#000000">ControlName_i</text></g><g class="node"><title>SynthDef File Format</title><path stroke="#000000" fill="none" d="M 422,-159.8 m -95.58,0 a 95.58,18 0 1,0 191.16,0 a 95.58,18 0 1,0 -191.16,0"></path><text x="422" y="-155.6" text-anchor="middle" font-family="'Times-Roman',serif" font-size="14" fill="#000000">SynthDef File Format</text></g><g class="node"><title>.scsyndef file</title><path stroke="#000000" fill="none" d="M 364,-104.8 m -62.54,0 a 62.54,18 0 1,0 125.08,0 a 62.54,18 0 1,0 -125.08,0"></path><text x="364" y="-100.6" text-anchor="middle" font-family="'Times-Roman',serif" font-size="14" fill="#000000">.scsyndef file</text></g><g class="node"><title>OSC blob</title><path stroke="#000000" fill="none" d="M 494,-104.8 m -49.3,0 a 49.3,18 0 1,0 98.6,0 a 49.3,18 0 1,0 -98.6,0"></path><text x="494" y="-100.6" text-anchor="middle" font-family="'Times-Roman',serif" font-size="14" fill="#000000">OSC blob</text></g><g class="node"><title>SuperCollider server</title><path stroke="#000000" fill="none" d="M 422,-34 m -91.43,0 a 91.43,18 0 1,0 182.86,0 a 91.43,18 0 1,0 -182.86,0"></path><text x="422" y="-29.8" text-anchor="middle" font-family="'Times-Roman',serif" font-size="14" fill="#000000">SuperCollider server</text></g><g class="node"><title>name</title><path stroke-width="2" stroke="#000000" fill="none" d="M 506,-452.4 L 569.8,-489.3,442.2,-489.3 Z"></path><text x="506" y="-472.8" text-anchor="middle" font-family="'Times-Roman',serif" font-size="14" fill="#000000">name</text></g><g class="node"><title>JS Func Obj</title><path stroke-width="2" stroke="#000000" fill="none" d="M 705,-452.4 L 822.64,-489.3,587.36,-489.3 Z"></path><text x="705" y="-472.8" text-anchor="middle" font-family="'Times-Roman',serif" font-size="14" fill="#000000">JS Func Obj</text></g><g class="node"><title>Optimized SynthDef</title><path class="dashed" stroke="#0000ff" fill="none" d="M 488.25,-254.8 L 355.75,-254.8,355.75,-218.8,488.25,-218.8 Z"></path><text x="422" y="-232.6" text-anchor="middle" font-family="'Times-Roman',serif" font-size="14" fill="#000000">Optimized SynthDef</text></g><g class="relation" style="opacity: 1;"><title>SynthDef-&gt;Name</title><path stroke="#000000" fill="none" d="M 682.09,-374.54 C 687.32,-360.09,694,-341.6,694,-341.6,694,-341.6,724,-332.6,724,-332.6,724,-332.6,727.62,-331.17,732.75,-329.14"></path><path class="solid" stroke="#000000" fill="#000000" d="M 736.78,-327.55 m -4,0 a 4,4 0 1,0 8,0 a 4,4 0 1,0 -8,0"></path></g><g class="relation" style="opacity: 1;"><title>SynthDef-&gt;JS Func Obj'</title><path stroke="#000000" fill="none" d="M 690.28,-375.09 C 702.99,-360.57,719.6,-341.6,719.6,-341.6,719.6,-341.6,810,-332.6,810,-332.6,810,-332.6,817.16,-330.89,826.93,-328.55"></path><path class="solid" stroke="#000000" fill="#000000" d="M 830.94,-327.59 m -4,0 a 4,4 0 1,0 8,0 a 4,4 0 1,0 -8,0"></path><text x="796.7" y="-345.8" text-anchor="middle" font-family="'Times-Roman',serif" font-size="14" fill="#000000"> Replace Ops with UGens</text></g><g class="relation" style="opacity: 1;"><title>SynthDef-&gt;UGen Nodes</title><path stroke="#000000" fill="none" d="M 639.61,-380.54 C 595.34,-367.33,520.42,-344.97,471.07,-330.25"></path><path class="solid" stroke="#000000" fill="#000000" d="M 467.22,-329.09 m -4,0 a 4,4 0 1,0 8,0 a 4,4 0 1,0 -8,0"></path></g><g class="relation" style="opacity: 1;"><title>SynthDef-&gt;Controls</title><path stroke="#000000" fill="none" d="M 627.9,-392.4 C 614.08,-392.4,602.67,-392.4,602.67,-392.4,602.67,-392.4,529.33,-392.4,529.33,-392.4,529.33,-392.4,520.22,-392.4,508.42,-392.4"></path><path class="solid" stroke="#000000" fill="#000000" d="M 504.35,-392.4 m -4,0 a 4,4 0 1,0 8,0 a 4,4 0 1,0 -8,0"></path></g><g class="relation" style="opacity: 1;"><title>SynthDef-&gt;Constants</title><path stroke="#000000" fill="none" d="M 673.73,-374.2 C 672.43,-364.31,670.77,-351.72,669.32,-340.74"></path><path class="solid" stroke="#000000" fill="#000000" d="M 668.78,-336.7 m -4,0 a 4,4 0 1,0 8,0 a 4,4 0 1,0 -8,0"></path></g><g class="relation" style="opacity: 1;"><title>UGen Nodes-&gt;UGen Nodes</title><path stroke="#000000" fill="none" d="M 479.65,-320.79 C 492.13,-320.18,501.18,-318.12,501.18,-314.6,501.18,-312.13,496.71,-310.37,489.71,-309.34"></path><path class="solid" stroke="#000000" fill="#000000" d="M 489.93,-305.84 L 479.65,-308.41,489.29,-312.81 Z"></path><text x="550.56" y="-310.4" text-anchor="middle" font-family="'Times-Roman',serif" font-size="14" fill="#000000"> Check Inputs      </text></g><g class="relation" style="opacity: 1;"><title>JS Func'-&gt;UGen_i</title><path stroke="#000000" fill="none" d="M 197.89,-539.08 C 188.42,-533.12,179.63,-527.6,179.63,-527.6,179.63,-527.6,177.95,-516.72,176.18,-505.16"></path><path class="solid" stroke="#000000" fill="#000000" d="M 179.6,-504.42 L 174.62,-495.07,172.69,-505.49 Z"></path><text x="208.19" y="-515" text-anchor="middle" font-family="'Times-Roman',serif" font-size="14" fill="#000000"> ∀ UGens</text></g><g class="relation" style="opacity: 1;"><title>JS Func'-&gt;Control_i</title><path stroke="#000000" fill="none" d="M 182.82,-544.87 C 149.78,-537.32,107.28,-527.6,107.28,-527.6,107.28,-527.6,95.97,-514.64,84.92,-501.97"></path><path class="solid" stroke="#000000" fill="#000000" d="M 87.38,-499.47 L 78.17,-494.24,82.11,-504.08 Z"></path><text x="140.86" y="-515" text-anchor="middle" font-family="'Times-Roman',serif" font-size="14" fill="#000000"> ∀ Controls</text></g><g class="relation" style="opacity: 1;"><title>JS Func'-&gt;Constant_i</title><path stroke="#000000" fill="none" d="M 234.67,-537.2 C 243.12,-527.06,254.11,-513.87,263.58,-502.51"></path><path class="solid" stroke="#000000" fill="#000000" d="M 266.43,-504.56 L 270.14,-494.63,261.05,-500.07 Z"></path><text x="293.36" y="-515" text-anchor="middle" font-family="'Times-Roman',serif" font-size="14" fill="#000000"> ∀ Constants</text></g><g class="relation" style="opacity: 1;"><title>Control_i-&gt;ControlUGen_i</title><path stroke="#000000" fill="none" d="M 68.77,-458.89 C 71.88,-447.7,76.01,-432.86,79.56,-420.13"></path><path class="solid" stroke="#000000" fill="#000000" d="M 82.93,-421.07 L 82.24,-410.49,76.19,-419.19 Z"></path></g><g class="relation" style="opacity: 1;"><title>Control_i-&gt;ControlName_i</title><path stroke="#000000" fill="none" d="M 93.4,-462.73 C 123.42,-449.18,170.31,-428.02,204.39,-412.63"></path><path class="solid" stroke="#000000" fill="#000000" d="M 205.96,-415.76 L 213.64,-408.46,203.08,-409.38 Z"></path></g><g class="relation" style="opacity: 1;"><title>SynthDef File Format-&gt;.scsyndef file</title><path stroke="#000000" fill="none" d="M 403.65,-142.03 C 399.23,-137.99,394.42,-133.6,389.73,-129.31"></path><path class="solid" stroke="#000000" fill="#000000" d="M 391.78,-126.44 L 382.03,-122.28,387.05,-131.61 Z"></path></g><g class="relation" style="opacity: 1;"><title>SynthDef File Format-&gt;OSC blob</title><path stroke="#000000" fill="none" d="M 444.78,-142.03 C 451.15,-137.34,458.17,-132.18,464.86,-127.25"></path><path class="solid" stroke="#000000" fill="#000000" d="M 467.1,-129.95 L 473.08,-121.2,462.95,-124.31 Z"></path></g><g class="relation" style="opacity: 1;"><title>.scsyndef file-&gt;SuperCollider server</title><path stroke="#000000" fill="none" d="M 378.04,-87.15 C 384.99,-78.9,393.52,-68.79,401.21,-59.67"></path><path class="solid" stroke="#000000" fill="#000000" d="M 403.92,-61.88 L 407.69,-51.98,398.56,-57.37 Z"></path><text x="419.05" y="-65.2" text-anchor="middle" font-family="'Times-Roman',serif" font-size="14" fill="#000000">d_load</text></g><g class="relation" style="opacity: 1;"><title>OSC blob-&gt;SuperCollider server</title><path stroke="#000000" fill="none" d="M 477.3,-87.84 C 468.3,-79.24,457.01,-68.45,446.98,-58.87"></path><path class="solid" stroke="#000000" fill="#000000" d="M 449.26,-56.21 L 439.61,-51.83,444.43,-61.27 Z"></path><text x="486.04" y="-65.2" text-anchor="middle" font-family="'Times-Roman',serif" font-size="14" fill="#000000">d_recv</text></g><g class="relation" style="opacity: 1;"><title>name-&gt;SynthDef</title><path stroke="#000000" fill="none" d="M 528.22,-465.2 C 556.28,-451.57,604.94,-427.93,638.73,-411.51"></path><path class="solid" stroke="#000000" fill="#000000" d="M 640.36,-414.61 L 647.83,-407.09,637.31,-408.31 Z"></path></g><g class="relation" style="opacity: 1;"><title>JS Func Obj-&gt;SynthDef</title><path stroke="#000000" fill="none" d="M 697.53,-454.73 C 693.83,-444.19,689.32,-431.35,685.39,-420.15"></path><path class="solid" stroke="#000000" fill="#000000" d="M 688.6,-418.72 L 681.98,-410.44,681.99,-421.03 Z"></path></g><g class="relation" style="opacity: 1;"><title>JS Func Obj'-&gt;JS Func'</title><path stroke="#000000" fill="none" d="M 876.48,-332.78 C 864.35,-378.88,832,-501.8,832,-501.8,832,-501.8,424.82,-536.32,275.26,-549"></path><path class="solid" stroke="#000000" fill="#000000" d="M 274.61,-545.54 L 264.94,-549.87,275.2,-552.52 Z"></path><text x="875.29" y="-430.6" text-anchor="middle" font-family="'Times-Roman',serif" font-size="14" fill="#000000"> Execute</text></g><g class="relation" style="opacity: 1;"><title>UGen Nodes-&gt;Optimized SynthDef</title><path stroke="#000000" fill="none" d="M 422,-288.7 C 422,-281.83,422,-274.31,422,-267.21"></path><path class="solid" stroke="#000000" fill="none" d="M 422,-266.93 L 418,-260.93,422,-254.93,426,-260.93 Z"></path><text x="470.99" y="-268" text-anchor="middle" font-family="'Times-Roman',serif" font-size="14" fill="#000000"> Topological Sort</text></g><g class="relation" style="opacity: 1;"><title>UGen_i-&gt;UGen Nodes</title><path class="inviz" stroke="#000000" fill="none" d="M 199.05,-463.12 C 210.83,-457.52,222,-452.2,222,-452.2,222,-452.2,327,-418.4,327,-418.4,327,-418.4,370,-341.6,370,-341.6,370,-341.6,375.52,-338.84,382.95,-335.12"></path><path class="solid" stroke="#000000" fill="#000000" d="M 384.98,-338.03 L 392.35,-330.42,381.84,-331.76 Z"></path></g><g class="relation" style="opacity: 1;"><title>ControlUGen_i-&gt;UGen Nodes</title><path stroke="#000000" fill="none" d="M 129.81,-378.02 C 148.83,-372.08,167,-366.4,167,-366.4,167,-366.4,287.66,-342.36,362.98,-327.36"></path><path class="solid" stroke="#000000" fill="#000000" d="M 363.71,-330.78 L 372.83,-325.39,362.34,-323.92 Z"></path></g><g class="relation" style="opacity: 1;"><title>ControlName_i-&gt;Controls</title><path stroke="#000000" fill="none" d="M 318.12,-392.4 C 328.13,-392.4,386.33,-392.4,386.33,-392.4,386.33,-392.4,392.53,-392.4,401.24,-392.4"></path><path class="solid" stroke="#000000" fill="#000000" d="M 401.48,-395.9 L 411.48,-392.4,401.48,-388.9 Z"></path></g><g class="relation" style="opacity: 1;"><title>Constant_i-&gt;Constants</title><path stroke="#000000" fill="none" d="M 303.67,-460.26 C 324.99,-443.21,356,-418.4,356,-418.4,356,-418.4,403,-366.4,403,-366.4,403,-366.4,608,-332.6,608,-332.6,608,-332.6,612.52,-331.27,619.05,-329.36"></path><path class="solid" stroke="#000000" fill="#000000" d="M 620.33,-332.63 L 628.94,-326.46,618.36,-325.92 Z"></path></g><g class="relation" style="opacity: 1;"><title>Optimized SynthDef-&gt;SynthDef File Format</title><path stroke="#000000" fill="none" d="M 422,-218.78 C 422,-209.74,422,-198.4,422,-188.15"></path><path class="solid" stroke="#000000" fill="#000000" d="M 422,-178.01 L 426.5,-188.01,422,-183.01,422,-188.01,422,-188.01,422,-188.01,422,-183.01,417.5,-188.01,422,-178.01 Z"></path></g></g></g></svg>