<svg version="1.1" xmlns="http://www.w3.org/2000/svg" width="626.4pt" height="386.4549720670391pt" viewBox="0 0 626.4 386.4549720670391"><style type="text/css">.dashed {stroke-dasharray: 5,5} .dotted {stroke-dasharray: 1,5} .overlay {fill: none; pointer-events: all}</style><g><g transform="translate(2.332960844039917, 384.1219787597656) scale(0.5832402110099792,0.5832402110099792)"><polygon stroke="#fffffe" stroke-opacity="0" fill="#ffffff" points="-4,4 -4,-658.6 1070,-658.6 1070,4"></polygon><g class="subgraph"><title>cluster_0</title><path class="dashed" stroke="#0000ff" fill="none" d="M 353,-289.8 L 353,-430.6,1058,-430.6,1058,-289.8 Z"></path></g><g class="subgraph"><title>cluster_1</title><path class="dashed" stroke="#ff0000" fill="none" d="M 8,-378.6 L 8,-646.6,345,-646.6,345,-378.6 Z"></path><text x="176.5" y="-630" text-anchor="middle" font-family="'Times-Roman',serif" font-size="14" fill="#000000">Construction of SynthDef</text></g><g class="subgraph"><title>cluster_2</title><path stroke="#000000" fill="none" d="M 644,-8 L 644,-221.8,902,-221.8,902,-8 Z" class="none"></path></g><g class="node"><title>edge</title></g><g class="node"><title>SynthDef</title><path stroke="#000000" fill="none" d="M 783,-404.6 m -48.09,0 a 48.09,18 0 1,0 96.18,0 a 48.09,18 0 1,0 -96.18,0"></path><text x="783" y="-400.4" text-anchor="middle" font-family="'Times-Roman',serif" font-size="14" fill="#000000">SynthDef</text></g><g class="node"><title>Name</title><path stroke="#000000" fill="#d3d3d3" d="M 874,-315.8 m -34.19,0 a 34.19,18 0 1,0 68.38,0 a 34.19,18 0 1,0 -68.38,0"></path><text x="874" y="-311.6" text-anchor="middle" font-family="'Times-Roman',serif" font-size="14" fill="#000000">Name</text></g><g class="node"><title>JS Func Obj'</title><path stroke="#000000" fill="#d3d3d3" d="M 988,-315.8 m -62,0 a 62,18 0 1,0 124,0 a 62,18 0 1,0 -124,0"></path><text x="988" y="-311.6" text-anchor="middle" font-family="'Times-Roman',serif" font-size="14" fill="#000000">JS Func Obj'</text></g><g class="node"><title>UGen Nodes</title><path stroke="#000000" fill="#d3d3d3" d="M 422,-315.8 m -61.36,0 a 61.36,18 0 1,0 122.72,0 a 61.36,18 0 1,0 -122.72,0"></path><text x="422" y="-311.6" text-anchor="middle" font-family="'Times-Roman',serif" font-size="14" fill="#000000">UGen Nodes</text></g><g class="node"><title>Controls</title><path stroke="#000000" fill="#d3d3d3" d="M 456,-404.6 m -44.1,0 a 44.1,18 0 1,0 88.2,0 a 44.1,18 0 1,0 -88.2,0"></path><text x="456" y="-400.4" text-anchor="middle" font-family="'Times-Roman',serif" font-size="14" fill="#000000">Controls</text></g><g class="node"><title>Constants</title><path stroke="#000000" fill="#d3d3d3" d="M 773,-315.8 m -49.26,0 a 49.26,18 0 1,0 98.52,0 a 49.26,18 0 1,0 -98.52,0"></path><text x="773" y="-311.6" text-anchor="middle" font-family="'Times-Roman',serif" font-size="14" fill="#000000">Constants</text></g><g class="node"><title>JS Func'</title><path stroke="#000000" fill="none" d="M 221,-595.8 m -45.2,0 a 45.2,18 0 1,0 90.4,0 a 45.2,18 0 1,0 -90.4,0"></path><text x="221" y="-591.6" text-anchor="middle" font-family="'Times-Roman',serif" font-size="14" fill="#000000">JS Func'</text></g><g class="node"><title>UGen_i</title><path stroke="#000000" fill="none" d="M 172,-500.2 m -41.71,0 a 41.71,18 0 1,0 83.42,0 a 41.71,18 0 1,0 -83.42,0"></path><text x="172" y="-496" text-anchor="middle" font-family="'Times-Roman',serif" font-size="14" fill="#000000">UGen_i</text></g><g class="node"><title>Control_i</title><path stroke="#000000" fill="none" d="M 64,-500.2 m -48.11,0 a 48.11,18 0 1,0 96.22,0 a 48.11,18 0 1,0 -96.22,0"></path><text x="64" y="-496" text-anchor="middle" font-family="'Times-Roman',serif" font-size="14" fill="#000000">Control_i</text></g><g class="node"><title>Constant_i</title><path stroke="#000000" fill="none" d="M 284,-500.2 m -52.77,0 a 52.77,18 0 1,0 105.54,0 a 52.77,18 0 1,0 -105.54,0"></path><text x="284" y="-496" text-anchor="middle" font-family="'Times-Roman',serif" font-size="14" fill="#000000">Constant_i</text></g><g class="node"><title>ControlUGen_i</title><path stroke="#000000" fill="none" d="M 87,-404.6 m -71.23,0 a 71.23,18 0 1,0 142.46,0 a 71.23,18 0 1,0 -142.46,0"></path><text x="87" y="-400.4" text-anchor="middle" font-family="'Times-Roman',serif" font-size="14" fill="#000000">ControlUGen_i</text></g><g class="node"><title>ControlName_i</title><path stroke="#000000" fill="none" d="M 247,-404.6 m -71.23,0 a 71.23,18 0 1,0 142.46,0 a 71.23,18 0 1,0 -142.46,0"></path><text x="247" y="-400.4" text-anchor="middle" font-family="'Times-Roman',serif" font-size="14" fill="#000000">ControlName_i</text></g><g class="node"><title>SynthDef File Format</title><text x="773" y="-191.6" text-anchor="middle" font-family="'Times-Roman',serif" font-size="14" fill="#000000">SynthDef File Format</text><path class="box" stroke="#000000" fill="none" d="M 773,-195.8 m -95.58,0 a 95.58,18 0 1,0 191.16,0 a 95.58,18 0 1,0 -191.16,0"></path></g><g class="node"><title>.scsyndef file</title><path class="box" stroke="#000000" fill="none" d="M 715,-122.8 m -62.54,0 a 62.54,18 0 1,0 125.08,0 a 62.54,18 0 1,0 -125.08,0"></path><text x="715" y="-118.6" text-anchor="middle" font-family="'Times-Roman',serif" font-size="14" fill="#000000">.scsyndef file</text></g><g class="node"><title>OSC blob</title><path class="box" stroke="#000000" fill="none" d="M 845,-122.8 m -49.3,0 a 49.3,18 0 1,0 98.6,0 a 49.3,18 0 1,0 -98.6,0"></path><text x="845" y="-118.6" text-anchor="middle" font-family="'Times-Roman',serif" font-size="14" fill="#000000">OSC blob</text></g><g class="node"><title>SuperCollider server</title><path class="box" stroke="#000000" fill="none" d="M 773,-34 m -91.43,0 a 91.43,18 0 1,0 182.86,0 a 91.43,18 0 1,0 -182.86,0"></path><text x="773" y="-29.8" text-anchor="middle" font-family="'Times-Roman',serif" font-size="14" fill="#000000">SuperCollider server</text></g><g class="node"><title>name</title><text x="613" y="-496" text-anchor="middle" font-family="'Times-Roman',serif" font-size="14" fill="#000000">name</text><path stroke-width="2" stroke="#000000" fill="none" d="M 613,-475.6 L 676.8,-512.5,549.2,-512.5 Z"></path></g><g class="node"><title>JS Func Obj</title><text x="812" y="-496" text-anchor="middle" font-family="'Times-Roman',serif" font-size="14" fill="#000000">JS Func Obj</text><path stroke-width="2" stroke="#000000" fill="none" d="M 812,-475.6 L 929.64,-512.5,694.36,-512.5 Z"></path></g><g class="relation" style="opacity: 1;"><title>SynthDef-&gt;Name</title><path stroke="#000000" fill="none" d="M 785.47,-386.49 C 787.83,-375.47,792.37,-361.46,801,-351.8,806.67,-345.45,823.33,-337.27,839.3,-330.41"></path><path class="solid" stroke="#000000" fill="#000000" d="M 843.35,-328.72 m -4,0 a 4,4 0 1,0 8,0 a 4,4 0 1,0 -8,0"></path></g><g class="relation" style="opacity: 1;"><title>SynthDef-&gt;JS Func Obj'</title><path stroke="#000000" fill="none" d="M 793.02,-386.49 C 800.72,-374.88,812.44,-360.17,826.6,-351.8,861.87,-330.96,876.98,-342.57,917,-333.8,922.62,-332.57,928.47,-331.24,934.31,-329.89"></path><text x="898.7" y="-356" text-anchor="middle" font-family="'Times-Roman',serif" font-size="14" fill="#000000"> Replace Ops with UGens</text><path class="solid" stroke="#000000" fill="#000000" d="M 938.33,-328.94 m -4,0 a 4,4 0 1,0 8,0 a 4,4 0 1,0 -8,0"></path></g><g class="relation" style="opacity: 1;"><title>SynthDef-&gt;UGen Nodes</title><path stroke="#000000" fill="none" d="M 743.68,-394.15 C 678.71,-378.52,548.85,-347.3,475.55,-329.68"></path><path class="solid" stroke="#000000" fill="#000000" d="M 471.66,-328.74 m -4,0 a 4,4 0 1,0 8,0 a 4,4 0 1,0 -8,0"></path></g><g class="relation" style="opacity: 1;"><title>SynthDef-&gt;Controls</title><path stroke="#000000" fill="none" d="M 734.7,-404.6 C 659.34,-404.6,583.98,-404.6,508.63,-404.6"></path><path class="solid" stroke="#000000" fill="#000000" d="M 504.39,-404.6 m -4,0 a 4,4 0 1,0 8,0 a 4,4 0 1,0 -8,0"></path></g><g class="relation" style="opacity: 1;"><title>SynthDef-&gt;Constants</title><path stroke="#000000" fill="none" d="M 781.02,-386.45 C 779.56,-373.73,777.54,-356.19,775.89,-341.89"></path><path class="solid" stroke="#000000" fill="#000000" d="M 775.43,-337.89 m -4,0 a 4,4 0 1,0 8,0 a 4,4 0 1,0 -8,0"></path></g><g class="relation" style="opacity: 1;"><title>UGen Nodes-&gt;UGen Nodes</title><path stroke="#000000" fill="none" d="M 481.74,-319.73 C 493.12,-319.26,501.18,-317.95,501.18,-315.8,501.18,-314.39,497.71,-313.34,492.11,-312.65"></path><path class="solid" stroke="#000000" fill="#000000" d="M 491.97,-309.13 L 481.74,-311.87,491.44,-316.11 Z"></path><text x="547.84" y="-311.6" text-anchor="middle" font-family="'Times-Roman',serif" font-size="14" fill="#000000"> Check Input      </text><path stroke="#000000" fill="none" d="M 478.14,-322.98 C 529.77,-325.67,594.5,-323.28,594.5,-315.8,594.5,-308.81,537.85,-306.26,488.26,-308.16"></path><path class="solid" stroke="#000000" fill="#000000" d="M 487.97,-304.67 L 478.14,-308.62,488.28,-311.66 Z"></path><text x="641.74" y="-311.6" text-anchor="middle" font-family="'Times-Roman',serif" font-size="14" fill="#000000">Topological Sort</text></g><g class="relation" style="opacity: 1;"><title>JS Func'-&gt;UGen_i</title><path stroke="#000000" fill="none" d="M 197.78,-580.17 C 190.85,-574.63,183.95,-567.73,179.63,-559.8,174.49,-550.37,172.28,-538.86,171.46,-528.54"></path><path class="solid" stroke="#000000" fill="#000000" d="M 174.95,-528.21 L 171.04,-518.36,167.95,-528.5 Z"></path><text x="208.19" y="-547.2" text-anchor="middle" font-family="'Times-Roman',serif" font-size="14" fill="#000000"> ∀ UGens</text></g><g class="relation" style="opacity: 1;"><title>JS Func'-&gt;Control_i</title><path stroke="#000000" fill="none" d="M 178.77,-589.21 C 155.11,-584.43,126.07,-575.69,104.28,-559.8,92.71,-551.36,83.35,-538.54,76.58,-527.04"></path><path class="solid" stroke="#000000" fill="#000000" d="M 79.61,-525.28 L 71.71,-518.21,73.48,-528.66 Z"></path><text x="137.86" y="-547.2" text-anchor="middle" font-family="'Times-Roman',serif" font-size="14" fill="#000000"> ∀ Controls</text></g><g class="relation" style="opacity: 1;"><title>JS Func'-&gt;Constant_i</title><path stroke="#000000" fill="none" d="M 232.26,-578.07 C 241.88,-563.78,255.86,-543.01,266.86,-526.66"></path><path class="solid" stroke="#000000" fill="#000000" d="M 269.94,-528.35 L 272.62,-518.1,264.13,-524.45 Z"></path><text x="293.36" y="-547.2" text-anchor="middle" font-family="'Times-Roman',serif" font-size="14" fill="#000000"> ∀ Constants</text></g><g class="relation" style="opacity: 1;"><title>Control_i-&gt;ControlUGen_i</title><path stroke="#000000" fill="none" d="M 68.22,-482.03 C 71.62,-468.18,76.47,-448.44,80.39,-432.49"></path><path class="solid" stroke="#000000" fill="#000000" d="M 83.82,-433.21 L 82.81,-422.66,77.02,-431.53 Z"></path></g><g class="relation" style="opacity: 1;"><title>Control_i-&gt;ControlName_i</title><path stroke="#000000" fill="none" d="M 91.4,-485.19 C 122.33,-469.36,172.92,-443.49,207.98,-425.56"></path><path class="solid" stroke="#000000" fill="#000000" d="M 209.67,-428.63 L 216.98,-420.96,206.48,-422.39 Z"></path></g><g class="relation" style="opacity: 1;"><title>SynthDef File Format-&gt;.scsyndef file</title><path stroke="#000000" fill="none" d="M 759.25,-177.97 C 752.03,-169.13,743.04,-158.13,735.06,-148.35"></path><path class="solid" stroke="#000000" fill="#000000" d="M 737.68,-146.04 L 728.65,-140.51,732.26,-150.46 Z"></path></g><g class="relation" style="opacity: 1;"><title>SynthDef File Format-&gt;OSC blob</title><path stroke="#000000" fill="none" d="M 790.06,-177.97 C 799.43,-168.73,811.19,-157.14,821.43,-147.04"></path><path class="solid" stroke="#000000" fill="#000000" d="M 823.89,-149.53 L 828.56,-140.02,818.98,-144.55 Z"></path></g><g class="relation" style="opacity: 1;"><title>.scsyndef file-&gt;SuperCollider server</title><path stroke="#000000" fill="none" d="M 726.18,-105.06 C 734.63,-92.42,746.38,-74.84,755.99,-60.45"></path><path class="solid" stroke="#000000" fill="#000000" d="M 759.01,-62.24 L 761.65,-51.98,753.19,-58.35 Z"></path><text x="768.05" y="-74.2" text-anchor="middle" font-family="'Times-Roman',serif" font-size="14" fill="#000000">d_load</text></g><g class="relation" style="opacity: 1;"><title>OSC blob-&gt;SuperCollider server</title><path stroke="#000000" fill="none" d="M 831.46,-105.47 C 820.73,-92.55,805.58,-74.28,793.39,-59.59"></path><path class="solid" stroke="#000000" fill="#000000" d="M 796.05,-57.31 L 786.97,-51.85,790.66,-61.78 Z"></path><text x="834.04" y="-74.2" text-anchor="middle" font-family="'Times-Roman',serif" font-size="14" fill="#000000">d_recv</text></g><g class="relation" style="opacity: 1;"><title>name-&gt;SynthDef</title><path stroke="#000000" fill="none" d="M 634.19,-487.53 C 662.66,-471.86,713.65,-443.78,747.91,-424.92"></path><path class="solid" stroke="#000000" fill="#000000" d="M 750.02,-427.76 L 757.09,-419.87,746.64,-421.62 Z"></path></g><g class="relation" style="opacity: 1;"><title>JS Func Obj-&gt;SynthDef</title><path stroke="#000000" fill="none" d="M 805.27,-477.49 C 801.1,-464.02,795.71,-446.61,791.27,-432.3"></path><path class="solid" stroke="#000000" fill="#000000" d="M 794.55,-431.04 L 788.24,-422.52,787.86,-433.11 Z"></path></g><g class="relation" style="opacity: 1;"><title>JS Func Obj'-&gt;JS Func'</title><path stroke="#000000" fill="none" d="M 989.89,-333.79 C 993.32,-374.04,995.62,-475.51,939,-525,889.35,-568.4,435.36,-587.63,275.99,-593.09"></path><path class="solid" stroke="#000000" fill="#000000" d="M 275.81,-589.59 L 265.93,-593.43,276.04,-596.59 Z"></path><text x="1007.29" y="-444.8" text-anchor="middle" font-family="'Times-Roman',serif" font-size="14" fill="#000000"> Execute</text></g><g class="relation" style="opacity: 1;"><title>Constants-&gt;SynthDef File Format</title><path stroke="#000000" fill="none" d="M 773,-289.86 C 773,-270.56,773,-243.85,773,-224"></path><path class="solid" stroke="#000000" fill="#000000" d="M 776.5,-223.98 L 773,-213.98,769.5,-223.98 Z"></path></g><g class="relation" style="opacity: 1;"><title>UGen_i-&gt;UGen Nodes</title><path class="inviz" stroke="#000000" fill="none" d="M 198.63,-486.27 C 206.16,-482.69,214.38,-478.84,222,-475.4,268.25,-454.54,289.44,-464.71,327,-430.6,356.54,-403.78,343.13,-381.29,370,-351.8,374.63,-346.72,380.14,-342.02,385.81,-337.81"></path><path class="solid" stroke="#000000" fill="#000000" d="M 387.94,-340.6 L 394.16,-332.02,383.95,-334.85 Z"></path></g><g class="relation" style="opacity: 1;"><title>ControlUGen_i-&gt;UGen Nodes</title><path stroke="#000000" fill="none" d="M 128.78,-389.98 C 141.05,-386.13,154.52,-382.06,167,-378.6,234.49,-359.9,312.89,-341.37,364.76,-329.55"></path><path class="solid" stroke="#000000" fill="#000000" d="M 365.79,-332.91 L 374.76,-327.28,364.24,-326.08 Z"></path></g><g class="relation" style="opacity: 1;"><title>ControlName_i-&gt;Controls</title><path stroke="#000000" fill="none" d="M 318.44,-404.6 C 346.11,-404.6,373.79,-404.6,401.47,-404.6"></path><path class="solid" stroke="#000000" fill="#000000" d="M 401.67,-408.1 L 411.67,-404.6,401.67,-401.1 Z"></path></g><g class="relation" style="opacity: 1;"><title>Constant_i-&gt;Constants</title><path stroke="#000000" fill="none" d="M 301.19,-483.11 C 315.74,-469.38,337.03,-448.99,355,-430.6,376.99,-408.11,375.16,-393.24,403,-378.6,527,-313.41,578.1,-363.53,715,-333.8,718.93,-332.95,722.97,-331.97,727.02,-330.92"></path><path class="solid" stroke="#000000" fill="#000000" d="M 728.27,-334.21 L 737.01,-328.21,726.44,-327.45 Z"></path></g></g></g></svg>